<?xml version="1.0" encoding="UTF-8" standalone="no"?>
<svg
   xmlns:osb="http://www.openswatchbook.org/uri/2009/osb"
   xmlns:dc="http://purl.org/dc/elements/1.1/"
   xmlns:cc="http://creativecommons.org/ns#"
   xmlns:rdf="http://www.w3.org/1999/02/22-rdf-syntax-ns#"
   xmlns:svg="http://www.w3.org/2000/svg"
   xmlns="http://www.w3.org/2000/svg"
   xmlns:sodipodi="http://sodipodi.sourceforge.net/DTD/sodipodi-0.dtd"
   xmlns:inkscape="http://www.inkscape.org/namespaces/inkscape"
   width="210mm"
   height="297mm"
   viewBox="0 0 210 297"
   version="1.1"
   id="svg8"
   sodipodi:docname="logo_superior.svg"
   inkscape:version="1.0beta1 (fe3e306, 2019-09-17)">
  <defs
     id="defs2">
    <linearGradient
       osb:paint="solid"
       id="linearGradient872">
      <stop
         id="stop870"
         offset="0"
         style="stop-color:#ffffff;stop-opacity:1;" />
    </linearGradient>
  </defs>
  <sodipodi:namedview
     inkscape:snap-text-baseline="false"
     id="base"
     pagecolor="#ffffff"
     bordercolor="#666666"
     borderopacity="1.0"
     inkscape:pageopacity="0.0"
     inkscape:pageshadow="2"
     inkscape:zoom="3.959798"
     inkscape:cx="402.11475"
     inkscape:cy="276.70302"
     inkscape:document-units="mm"
     inkscape:current-layer="layer1"
     inkscape:document-rotation="0"
     showgrid="false"
     showguides="false"
     inkscape:window-width="1920"
     inkscape:window-height="986"
     inkscape:window-x="-11"
     inkscape:window-y="-11"
     inkscape:window-maximized="1" />
  <metadata
     id="metadata5">
    <rdf:RDF>
      <cc:Work
         rdf:about="">
        <dc:format>image/svg+xml</dc:format>
        <dc:type
           rdf:resource="http://purl.org/dc/dcmitype/StillImage" />
        <dc:title />
      </cc:Work>
    </rdf:RDF>
  </metadata>
  <g
     inkscape:label="Capa 1"
     inkscape:groupmode="layer"
     id="layer1">
    <rect
       style="fill:#212322;fill-opacity:1;stroke:#d49460;stroke-width:0.450001"
       id="rect953"
       width="79.245415"
       height="36.883194"
       x="17.506155"
       y="31.404167"
       ry="0.94494081" />
    <text
       xml:space="preserve"
       style="font-style:normal;font-weight:normal;font-size:10.5833px;line-height:1.25;font-family:sans-serif;fill:#ffffff;fill-opacity:1;stroke:none;stroke-width:0.264583;"
       x="30.994047"
       y="53.105656"
       id="text835"
       inkscape:export-xdpi="160"
       inkscape:export-ydpi="160"><tspan
         sodipodi:role="line"
         id="tspan833"
         x="30.994047"
         y="53.105656"
         style="font-style:normal;font-variant:normal;font-weight:normal;font-stretch:normal;font-family:Danube;-inkscape-font-specification:Danube;stroke-width:0.264583;fill:#ffffff;fill-opacity:1;">m  rfo</tspan></text>
    <g
       id="g951"
       transform="matrix(0.05628199,-0.00967561,0.00967561,0.05628199,44.435096,43.301339)"
       style="fill:#d4001c;fill-opacity:1"
       inkscape:export-xdpi="160"
       inkscape:export-ydpi="160">
      <path
         id="path896"
         d="m 182.198,205.491 c -6.62,7.785 -17.241,11.569 -32.467,11.569 -0.002,0 -0.005,0 -0.008,0 -6.335,-0.001 -13.6,-0.681 -21.592,-2.021 -66.912,-11.219 -70.308,-34.4 -70.308,-71.295 0,-27.397 17.425,-37.19 28.179,-40.625 C 79.262,96.439 69.108,83.86 66.433,66.737 63.234,46.26 74.549,33.865 80.373,28.968 L 74.877,20.09 c -0.938,-1.516 -0.761,-3.469 0.436,-4.79 l 7.752,-8.562 c 0.87,-0.962 2.155,-1.441 3.44,-1.287 1.288,0.154 2.421,0.923 3.04,2.063 L 96.472,20.266 99.3,19.63 97.803,6.452 C 97.675,5.32 98.035,4.186 98.794,3.336 99.553,2.486 100.638,2 101.777,2 h 11.605 c 2.187,0 3.968,1.756 4,3.943 l 0.132,9.239 3.766,-0.128 1.706,-11.634 c 0.311,-2.116 2.239,-3.613 4.358,-3.399 l 9.938,1 c 2.168,0.218 3.763,2.132 3.586,4.305 l -1.298,15.946 8.303,10.167 c 0.696,0.853 1.01,1.955 0.868,3.046 -0.142,1.091 -0.728,2.076 -1.619,2.723 -0.179,0.13 -17.976,13.117 -23.929,24.322 -3.547,6.678 -3.332,13.618 -1.286,17.021 0.542,0.902 1.181,1.463 1.665,1.463 l 0.125,-0.01 c 0.736,-0.458 1.81,-3.803 2.521,-6.017 1.522,-4.744 3.418,-10.647 7.926,-16.11 7.304,-8.849 19.067,-15.523 27.363,-15.523 2.592,0 4.786,0.629 6.521,1.868 6.455,4.61 7.282,19.607 7.381,24.094 0.042,1.889 -1.244,3.55 -3.083,3.982 l -12.937,3.044 c -1.98,0.466 -5.396,1.528 -6.012,3.4 -0.384,1.167 -0.434,4.876 7.385,14.091 10.742,12.661 20.844,26.847 26.392,60.924 2.648,16.261 6.273,38.531 -4.956,51.734 z M 69.428,97.372 C 69.309,97.164 57.473,76.474 56.242,64.336 55.13,53.377 59.451,48.198 59.598,48.024 c 0.83,-0.913 1.192,-2.157 0.981,-3.373 -0.211,-1.216 -0.97,-2.266 -2.059,-2.847 -0.479,-0.256 -4.831,-2.5 -9.803,-2.5 -3.324,0 -6.288,1.035 -8.571,2.992 -5.669,4.859 -4.685,23.784 -3.35,36.148 -3.29,3.288 -7.141,11.399 -9.249,30.762 -3.204,29.435 14.911,49.486 15.684,50.325 0.775,0.841 1.849,1.291 2.943,1.291 0.014,0 0.028,0 0.042,0 2.198,-0.013 3.977,-1.799 3.977,-4 0,-0.271 -0.027,-0.535 -0.078,-0.79 -0.229,-2.515 -1.404,-17.81 2.393,-31.84 3.869,-14.3 15.376,-21.317 15.48,-21.379 1.891,-1.111 2.534,-3.539 1.44,-5.441 z"
         inkscape:connector-curvature="0"
         style="fill:#d4001c;fill-opacity:1" />
      <g
         id="g898"
         style="fill:#d4001c;fill-opacity:1" />
      <g
         id="g900"
         style="fill:#d4001c;fill-opacity:1" />
      <g
         id="g902"
         style="fill:#d4001c;fill-opacity:1" />
      <g
         id="g904"
         style="fill:#d4001c;fill-opacity:1" />
      <g
         id="g906"
         style="fill:#d4001c;fill-opacity:1" />
      <g
         id="g908"
         style="fill:#d4001c;fill-opacity:1" />
      <g
         id="g910"
         style="fill:#d4001c;fill-opacity:1" />
      <g
         id="g912"
         style="fill:#d4001c;fill-opacity:1" />
      <g
         id="g914"
         style="fill:#d4001c;fill-opacity:1" />
      <g
         id="g916"
         style="fill:#d4001c;fill-opacity:1" />
      <g
         id="g918"
         style="fill:#d4001c;fill-opacity:1" />
      <g
         id="g920"
         style="fill:#d4001c;fill-opacity:1" />
      <g
         id="g922"
         style="fill:#d4001c;fill-opacity:1" />
      <g
         id="g924"
         style="fill:#d4001c;fill-opacity:1" />
      <g
         id="g926"
         style="fill:#d4001c;fill-opacity:1" />
    </g>
    <text
       inkscape:export-ydpi="320"
       inkscape:export-xdpi="320"
       xml:space="preserve"
       style="font-style:normal;font-weight:normal;font-size:2.56439px;line-height:1.25;font-family:sans-serif;fill:#000000;fill-opacity:1;stroke:none;stroke-width:0.1;stroke-miterlimit:4;stroke-dasharray:none"
       x="30.475025"
       y="56.788216"
       id="text957"><tspan
         sodipodi:role="line"
         id="tspan955"
         x="30.475025"
         y="56.788216"
         style="font-style:normal;font-variant:normal;font-weight:bold;font-stretch:normal;font-family:'Uber Move Text';-inkscape-font-specification:'Uber Move Text';fill:#ffffff;fill-opacity:1;stroke:#ffffff;stroke-width:0.1;stroke-miterlimit:4;stroke-dasharray:none;stroke-opacity:1">Facultad de Medicina - Universidad de Chile</tspan></text>
    <g
       inkscape:export-filename="C:\Users\aleja\OneDrive\Escritorio\react\nuevo-morfo\public\logo192.png"
       inkscape:export-ydpi="215.30161"
       inkscape:export-xdpi="215.30161"
       style="fill:#d4001c;fill-opacity:1"
       transform="matrix(0.0980537,-0.05296109,0.0527288,0.09848567,107.70811,49.057865)"
       id="g909">
      <path
         style="fill:#d4001c;fill-opacity:1"
         inkscape:connector-curvature="0"
         d="m 182.198,205.491 c -6.62,7.785 -17.241,11.569 -32.467,11.569 -0.002,0 -0.005,0 -0.008,0 -6.335,-0.001 -13.6,-0.681 -21.592,-2.021 -66.912,-11.219 -70.308,-34.4 -70.308,-71.295 0,-27.397 17.425,-37.19 28.179,-40.625 C 79.262,96.439 69.108,83.86 66.433,66.737 63.234,46.26 74.549,33.865 80.373,28.968 L 74.877,20.09 c -0.938,-1.516 -0.761,-3.469 0.436,-4.79 l 7.752,-8.562 c 0.87,-0.962 2.155,-1.441 3.44,-1.287 1.288,0.154 2.421,0.923 3.04,2.063 L 96.472,20.266 99.3,19.63 97.803,6.452 C 97.675,5.32 98.035,4.186 98.794,3.336 99.553,2.486 100.638,2 101.777,2 h 11.605 c 2.187,0 3.968,1.756 4,3.943 l 0.132,9.239 3.766,-0.128 1.706,-11.634 c 0.311,-2.116 2.239,-3.613 4.358,-3.399 l 9.938,1 c 2.168,0.218 3.763,2.132 3.586,4.305 l -1.298,15.946 8.303,10.167 c 0.696,0.853 1.01,1.955 0.868,3.046 -0.142,1.091 -0.728,2.076 -1.619,2.723 -0.179,0.13 -17.976,13.117 -23.929,24.322 -3.547,6.678 -3.332,13.618 -1.286,17.021 0.542,0.902 1.181,1.463 1.665,1.463 l 0.125,-0.01 c 0.736,-0.458 1.81,-3.803 2.521,-6.017 1.522,-4.744 3.418,-10.647 7.926,-16.11 7.304,-8.849 19.067,-15.523 27.363,-15.523 2.592,0 4.786,0.629 6.521,1.868 6.455,4.61 7.282,19.607 7.381,24.094 0.042,1.889 -1.244,3.55 -3.083,3.982 l -12.937,3.044 c -1.98,0.466 -5.396,1.528 -6.012,3.4 -0.384,1.167 -0.434,4.876 7.385,14.091 10.742,12.661 20.844,26.847 26.392,60.924 2.648,16.261 6.273,38.531 -4.956,51.734 z M 69.428,97.372 C 69.309,97.164 57.473,76.474 56.242,64.336 55.13,53.377 59.451,48.198 59.598,48.024 c 0.83,-0.913 1.192,-2.157 0.981,-3.373 -0.211,-1.216 -0.97,-2.266 -2.059,-2.847 -0.479,-0.256 -4.831,-2.5 -9.803,-2.5 -3.324,0 -6.288,1.035 -8.571,2.992 -5.669,4.859 -4.685,23.784 -3.35,36.148 -3.29,3.288 -7.141,11.399 -9.249,30.762 -3.204,29.435 14.911,49.486 15.684,50.325 0.775,0.841 1.849,1.291 2.943,1.291 0.014,0 0.028,0 0.042,0 2.198,-0.013 3.977,-1.799 3.977,-4 0,-0.271 -0.027,-0.535 -0.078,-0.79 -0.229,-2.515 -1.404,-17.81 2.393,-31.84 3.869,-14.3 15.376,-21.317 15.48,-21.379 1.891,-1.111 2.534,-3.539 1.44,-5.441 z"
         id="path876" />
      <g
         style="fill:#d4001c;fill-opacity:1"
         id="g878" />
      <g
         style="fill:#d4001c;fill-opacity:1"
         id="g880" />
      <g
         style="fill:#d4001c;fill-opacity:1"
         id="g882" />
      <g
         style="fill:#d4001c;fill-opacity:1"
         id="g884" />
      <g
         style="fill:#d4001c;fill-opacity:1"
         id="g886" />
      <g
         style="fill:#d4001c;fill-opacity:1"
         id="g888" />
      <g
         style="fill:#d4001c;fill-opacity:1"
         id="g890" />
      <g
         style="fill:#d4001c;fill-opacity:1"
         id="g892" />
      <g
         style="fill:#d4001c;fill-opacity:1"
         id="g894" />
      <g
         style="fill:#d4001c;fill-opacity:1"
         id="g896" />
      <g
         style="fill:#d4001c;fill-opacity:1"
         id="g899" />
      <g
         style="fill:#d4001c;fill-opacity:1"
         id="g901" />
      <g
         style="fill:#d4001c;fill-opacity:1"
         id="g903" />
      <g
         style="fill:#d4001c;fill-opacity:1"
         id="g905" />
      <g
         style="fill:#d4001c;fill-opacity:1"
         id="g907" />
    </g>
    <text
       inkscape:export-filename="C:\Users\aleja\OneDrive\Escritorio\react\nuevo-morfo\public\logo192.png"
       inkscape:export-ydpi="215.30161"
       inkscape:export-xdpi="215.30161"
       id="text913"
       y="60.138649"
       x="124.06976"
       style="font-style:normal;font-weight:normal;font-size:5.92869px;line-height:1.25;font-family:sans-serif;fill:#ffffff;fill-opacity:1;stroke:none;stroke-width:0.148218"
       xml:space="preserve"><tspan
         style="font-style:normal;font-variant:normal;font-weight:normal;font-stretch:normal;font-family:Danube;-inkscape-font-specification:Danube;fill:#ffffff;fill-opacity:1;stroke-width:0.148218"
         y="60.138649"
         x="124.06976"
         id="tspan911"
         sodipodi:role="line">m</tspan></text>
    <rect
       inkscape:export-ydpi="160"
       inkscape:export-xdpi="160"
       inkscape:export-filename="C:\Users\aleja\OneDrive\Escritorio\react\nuevo-morfo\public\favicon.png"
       y="74.776634"
       x="109.58849"
       height="10.073454"
       width="10.073454"
       id="rect984"
       style="fill:#6e6e6e;fill-opacity:0.42505592;stroke:#ffffff;stroke-width:0.11597;stroke-miterlimit:4;stroke-dasharray:none;stroke-opacity:1" />
    <g
       inkscape:export-filename="C:\Users\aleja\OneDrive\Escritorio\react\nuevo-morfo\public\favicon.png"
       inkscape:export-ydpi="160"
       inkscape:export-xdpi="160"
       style="fill:#d4001c;fill-opacity:1"
       transform="matrix(0.04206709,-0.00723188,0.00723188,0.04206709,108.95559,76.188467)"
       id="g982">
      <path
         style="fill:#d4001c;fill-opacity:1"
         inkscape:connector-curvature="0"
         d="m 182.198,205.491 c -6.62,7.785 -17.241,11.569 -32.467,11.569 -0.002,0 -0.005,0 -0.008,0 -6.335,-0.001 -13.6,-0.681 -21.592,-2.021 -66.912,-11.219 -70.308,-34.4 -70.308,-71.295 0,-27.397 17.425,-37.19 28.179,-40.625 C 79.262,96.439 69.108,83.86 66.433,66.737 63.234,46.26 74.549,33.865 80.373,28.968 L 74.877,20.09 c -0.938,-1.516 -0.761,-3.469 0.436,-4.79 l 7.752,-8.562 c 0.87,-0.962 2.155,-1.441 3.44,-1.287 1.288,0.154 2.421,0.923 3.04,2.063 L 96.472,20.266 99.3,19.63 97.803,6.452 C 97.675,5.32 98.035,4.186 98.794,3.336 99.553,2.486 100.638,2 101.777,2 h 11.605 c 2.187,0 3.968,1.756 4,3.943 l 0.132,9.239 3.766,-0.128 1.706,-11.634 c 0.311,-2.116 2.239,-3.613 4.358,-3.399 l 9.938,1 c 2.168,0.218 3.763,2.132 3.586,4.305 l -1.298,15.946 8.303,10.167 c 0.696,0.853 1.01,1.955 0.868,3.046 -0.142,1.091 -0.728,2.076 -1.619,2.723 -0.179,0.13 -17.976,13.117 -23.929,24.322 -3.547,6.678 -3.332,13.618 -1.286,17.021 0.542,0.902 1.181,1.463 1.665,1.463 l 0.125,-0.01 c 0.736,-0.458 1.81,-3.803 2.521,-6.017 1.522,-4.744 3.418,-10.647 7.926,-16.11 7.304,-8.849 19.067,-15.523 27.363,-15.523 2.592,0 4.786,0.629 6.521,1.868 6.455,4.61 7.282,19.607 7.381,24.094 0.042,1.889 -1.244,3.55 -3.083,3.982 l -12.937,3.044 c -1.98,0.466 -5.396,1.528 -6.012,3.4 -0.384,1.167 -0.434,4.876 7.385,14.091 10.742,12.661 20.844,26.847 26.392,60.924 2.648,16.261 6.273,38.531 -4.956,51.734 z M 69.428,97.372 C 69.309,97.164 57.473,76.474 56.242,64.336 55.13,53.377 59.451,48.198 59.598,48.024 c 0.83,-0.913 1.192,-2.157 0.981,-3.373 -0.211,-1.216 -0.97,-2.266 -2.059,-2.847 -0.479,-0.256 -4.831,-2.5 -9.803,-2.5 -3.324,0 -6.288,1.035 -8.571,2.992 -5.669,4.859 -4.685,23.784 -3.35,36.148 -3.29,3.288 -7.141,11.399 -9.249,30.762 -3.204,29.435 14.911,49.486 15.684,50.325 0.775,0.841 1.849,1.291 2.943,1.291 0.014,0 0.028,0 0.042,0 2.198,-0.013 3.977,-1.799 3.977,-4 0,-0.271 -0.027,-0.535 -0.078,-0.79 -0.229,-2.515 -1.404,-17.81 2.393,-31.84 3.869,-14.3 15.376,-21.317 15.48,-21.379 1.891,-1.111 2.534,-3.539 1.44,-5.441 z"
         id="path949" />
      <g
         style="fill:#d4001c;fill-opacity:1"
         id="g952" />
      <g
         style="fill:#d4001c;fill-opacity:1"
         id="g954" />
      <g
         style="fill:#d4001c;fill-opacity:1"
         id="g956" />
      <g
         style="fill:#d4001c;fill-opacity:1"
         id="g958" />
      <g
         style="fill:#d4001c;fill-opacity:1"
         id="g960" />
      <g
         style="fill:#d4001c;fill-opacity:1"
         id="g962" />
      <g
         style="fill:#d4001c;fill-opacity:1"
         id="g964" />
      <g
         style="fill:#d4001c;fill-opacity:1"
         id="g966" />
      <g
         style="fill:#d4001c;fill-opacity:1"
         id="g968" />
      <g
         style="fill:#d4001c;fill-opacity:1"
         id="g970" />
      <g
         style="fill:#d4001c;fill-opacity:1"
         id="g972" />
      <g
         style="fill:#d4001c;fill-opacity:1"
         id="g974" />
      <g
         style="fill:#d4001c;fill-opacity:1"
         id="g976" />
      <g
         style="fill:#d4001c;fill-opacity:1"
         id="g978" />
      <g
         style="fill:#d4001c;fill-opacity:1"
         id="g980" />
    </g>
  </g>
</svg>
